<mxfile host="65bd71144e">
    <diagram id="qhhgVpQUWNCosZ2mL5r4" name="페이지-1">
        <mxGraphModel dx="-121" dy="658" grid="1" gridSize="10" guides="1" tooltips="1" connect="1" arrows="1" fold="1" page="1" pageScale="1" pageWidth="827" pageHeight="1169" math="0" shadow="0">
            <root>
                <mxCell id="0"/>
                <mxCell id="1" parent="0"/>
                <mxCell id="125" value="User" style="shape=table;startSize=30;container=1;collapsible=0;childLayout=tableLayout;fixedRows=1;rowLines=0;fontStyle=1;align=center;fontFamily=Helvetica;fontSize=13;labelBackgroundColor=none;labelBorderColor=none;resizeHeight=0;movable=1;resizable=1;" parent="1" vertex="1">
                    <mxGeometry x="1241" y="30" width="199" height="270" as="geometry"/>
                </mxCell>
                <mxCell id="126" value="" style="shape=partialRectangle;html=1;whiteSpace=wrap;collapsible=0;dropTarget=0;pointerEvents=0;fillColor=none;top=0;left=0;bottom=1;right=0;points=[[0,0.5],[1,0.5]];portConstraint=eastwest;fontFamily=Helvetica;labelBackgroundColor=none;labelBorderColor=none;fontSize=13;" parent="125" vertex="1">
                    <mxGeometry y="30" width="199" height="30" as="geometry"/>
                </mxCell>
                <mxCell id="127" value="ID" style="shape=partialRectangle;html=1;whiteSpace=wrap;connectable=0;fillColor=none;top=0;left=0;bottom=0;right=0;overflow=hidden;fontFamily=Helvetica;labelBackgroundColor=none;labelBorderColor=none;fontSize=13;" parent="126" vertex="1">
                    <mxGeometry width="79" height="30" as="geometry"/>
                </mxCell>
                <mxCell id="128" value="int - PK" style="shape=partialRectangle;html=1;whiteSpace=wrap;connectable=0;fillColor=none;top=0;left=0;bottom=0;right=0;align=left;spacingLeft=6;overflow=hidden;fontFamily=Helvetica;labelBackgroundColor=none;labelBorderColor=none;fontSize=13;" parent="126" vertex="1">
                    <mxGeometry x="79" width="120" height="30" as="geometry"/>
                </mxCell>
                <mxCell id="129" value="" style="shape=partialRectangle;html=1;whiteSpace=wrap;collapsible=0;dropTarget=0;pointerEvents=0;fillColor=none;top=0;left=0;bottom=0;right=0;points=[[0,0.5],[1,0.5]];portConstraint=eastwest;fontFamily=Helvetica;labelBackgroundColor=none;labelBorderColor=none;resizeHeight=0;fontSize=13;" parent="125" vertex="1">
                    <mxGeometry y="60" width="199" height="30" as="geometry"/>
                </mxCell>
                <mxCell id="130" value="Username" style="shape=partialRectangle;html=1;whiteSpace=wrap;connectable=0;fillColor=none;top=0;left=0;bottom=0;right=0;overflow=hidden;fontFamily=Helvetica;labelBackgroundColor=none;labelBorderColor=none;resizeHeight=0;fontSize=13;" parent="129" vertex="1">
                    <mxGeometry width="79" height="30" as="geometry"/>
                </mxCell>
                <mxCell id="131" value="CharField(30)" style="shape=partialRectangle;html=1;whiteSpace=wrap;connectable=0;fillColor=none;top=0;left=0;bottom=0;right=0;align=left;spacingLeft=6;overflow=hidden;fontFamily=Helvetica;labelBackgroundColor=none;labelBorderColor=none;fontSize=13;" parent="129" vertex="1">
                    <mxGeometry x="79" width="120" height="30" as="geometry"/>
                </mxCell>
                <mxCell id="132" value="" style="shape=partialRectangle;html=1;whiteSpace=wrap;collapsible=0;dropTarget=0;pointerEvents=0;fillColor=none;top=0;left=0;bottom=0;right=0;points=[[0,0.5],[1,0.5]];portConstraint=eastwest;fontFamily=Helvetica;labelBackgroundColor=none;labelBorderColor=none;fontSize=13;" parent="125" vertex="1">
                    <mxGeometry y="90" width="199" height="30" as="geometry"/>
                </mxCell>
                <mxCell id="133" value="Email" style="shape=partialRectangle;html=1;whiteSpace=wrap;connectable=0;fillColor=none;top=0;left=0;bottom=0;right=0;overflow=hidden;fontFamily=Helvetica;labelBackgroundColor=none;labelBorderColor=none;fontSize=13;" parent="132" vertex="1">
                    <mxGeometry width="79" height="30" as="geometry"/>
                </mxCell>
                <mxCell id="134" value="CharField(30)" style="shape=partialRectangle;html=1;whiteSpace=wrap;connectable=0;fillColor=none;top=0;left=0;bottom=0;right=0;align=left;spacingLeft=6;overflow=hidden;fontFamily=Helvetica;labelBackgroundColor=none;labelBorderColor=none;fontSize=13;" parent="132" vertex="1">
                    <mxGeometry x="79" width="120" height="30" as="geometry"/>
                </mxCell>
                <mxCell id="138" value="" style="shape=partialRectangle;html=1;whiteSpace=wrap;collapsible=0;dropTarget=0;pointerEvents=0;fillColor=none;top=0;left=0;bottom=0;right=0;points=[[0,0.5],[1,0.5]];portConstraint=eastwest;fontFamily=Helvetica;labelBackgroundColor=none;labelBorderColor=none;fontSize=13;" parent="125" vertex="1">
                    <mxGeometry y="120" width="199" height="30" as="geometry"/>
                </mxCell>
                <mxCell id="139" value="Password" style="shape=partialRectangle;html=1;whiteSpace=wrap;connectable=0;fillColor=none;top=0;left=0;bottom=0;right=0;overflow=hidden;fontFamily=Helvetica;labelBackgroundColor=none;labelBorderColor=none;fontSize=13;" parent="138" vertex="1">
                    <mxGeometry width="79" height="30" as="geometry"/>
                </mxCell>
                <mxCell id="140" value="CharField(30)" style="shape=partialRectangle;html=1;whiteSpace=wrap;connectable=0;fillColor=none;top=0;left=0;bottom=0;right=0;align=left;spacingLeft=6;overflow=hidden;fontFamily=Helvetica;labelBackgroundColor=none;labelBorderColor=none;fontSize=13;" parent="138" vertex="1">
                    <mxGeometry x="79" width="120" height="30" as="geometry"/>
                </mxCell>
                <mxCell id="265" value="" style="shape=partialRectangle;html=1;whiteSpace=wrap;collapsible=0;dropTarget=0;pointerEvents=0;fillColor=none;top=0;left=0;bottom=0;right=0;points=[[0,0.5],[1,0.5]];portConstraint=eastwest;fontFamily=Helvetica;labelBackgroundColor=none;labelBorderColor=none;fontSize=13;" parent="125" vertex="1">
                    <mxGeometry y="150" width="199" height="30" as="geometry"/>
                </mxCell>
                <mxCell id="266" value="Description" style="shape=partialRectangle;html=1;whiteSpace=wrap;connectable=0;fillColor=none;top=0;left=0;bottom=0;right=0;overflow=hidden;fontFamily=Helvetica;labelBackgroundColor=none;labelBorderColor=none;fontSize=13;" parent="265" vertex="1">
                    <mxGeometry width="79" height="30" as="geometry"/>
                </mxCell>
                <mxCell id="267" value="TextField" style="shape=partialRectangle;html=1;whiteSpace=wrap;connectable=0;fillColor=none;top=0;left=0;bottom=0;right=0;align=left;spacingLeft=6;overflow=hidden;fontFamily=Helvetica;labelBackgroundColor=none;labelBorderColor=none;fontSize=13;" parent="265" vertex="1">
                    <mxGeometry x="79" width="120" height="30" as="geometry"/>
                </mxCell>
                <mxCell id="224" value="" style="shape=partialRectangle;html=1;whiteSpace=wrap;collapsible=0;dropTarget=0;pointerEvents=0;fillColor=none;top=0;left=0;bottom=0;right=0;points=[[0,0.5],[1,0.5]];portConstraint=eastwest;fontFamily=Helvetica;labelBackgroundColor=none;labelBorderColor=none;fontSize=13;" parent="125" vertex="1">
                    <mxGeometry y="180" width="199" height="30" as="geometry"/>
                </mxCell>
                <mxCell id="225" value="Photo" style="shape=partialRectangle;html=1;whiteSpace=wrap;connectable=0;fillColor=none;top=0;left=0;bottom=0;right=0;overflow=hidden;fontFamily=Helvetica;labelBackgroundColor=none;labelBorderColor=none;fontSize=13;" parent="224" vertex="1">
                    <mxGeometry width="79" height="30" as="geometry"/>
                </mxCell>
                <mxCell id="226" value="ImageField" style="shape=partialRectangle;html=1;whiteSpace=wrap;connectable=0;fillColor=none;top=0;left=0;bottom=0;right=0;align=left;spacingLeft=6;overflow=hidden;fontFamily=Helvetica;labelBackgroundColor=none;labelBorderColor=none;fontSize=13;" parent="224" vertex="1">
                    <mxGeometry x="79" width="120" height="30" as="geometry"/>
                </mxCell>
                <mxCell id="320" value="" style="shape=partialRectangle;html=1;whiteSpace=wrap;collapsible=0;dropTarget=0;pointerEvents=0;fillColor=none;top=0;left=0;bottom=0;right=0;points=[[0,0.5],[1,0.5]];portConstraint=eastwest;fontFamily=Helvetica;labelBackgroundColor=none;labelBorderColor=none;fontSize=13;" parent="125" vertex="1">
                    <mxGeometry y="210" width="199" height="30" as="geometry"/>
                </mxCell>
                <mxCell id="321" value="Followings" style="shape=partialRectangle;html=1;whiteSpace=wrap;connectable=0;fillColor=none;top=0;left=0;bottom=0;right=0;overflow=hidden;fontFamily=Helvetica;labelBackgroundColor=none;labelBorderColor=none;fontSize=13;" parent="320" vertex="1">
                    <mxGeometry width="79" height="30" as="geometry"/>
                </mxCell>
                <mxCell id="322" value="ManyToManyField" style="shape=partialRectangle;html=1;whiteSpace=wrap;connectable=0;fillColor=none;top=0;left=0;bottom=0;right=0;align=left;spacingLeft=6;overflow=hidden;fontFamily=Helvetica;labelBackgroundColor=none;labelBorderColor=none;fontSize=13;" parent="320" vertex="1">
                    <mxGeometry x="79" width="120" height="30" as="geometry"/>
                </mxCell>
                <mxCell id="470" value="" style="shape=partialRectangle;html=1;whiteSpace=wrap;collapsible=0;dropTarget=0;pointerEvents=0;fillColor=none;top=0;left=0;bottom=0;right=0;points=[[0,0.5],[1,0.5]];portConstraint=eastwest;fontFamily=Helvetica;labelBackgroundColor=none;labelBorderColor=none;fontSize=13;" parent="125" vertex="1">
                    <mxGeometry y="240" width="199" height="30" as="geometry"/>
                </mxCell>
                <mxCell id="471" value="Instruments" style="shape=partialRectangle;html=1;whiteSpace=wrap;connectable=0;fillColor=none;top=0;left=0;bottom=0;right=0;overflow=hidden;fontFamily=Helvetica;labelBackgroundColor=none;labelBorderColor=none;fontSize=13;" parent="470" vertex="1">
                    <mxGeometry width="79" height="30" as="geometry"/>
                </mxCell>
                <mxCell id="472" value="ManyToManyField" style="shape=partialRectangle;html=1;whiteSpace=wrap;connectable=0;fillColor=none;top=0;left=0;bottom=0;right=0;align=left;spacingLeft=6;overflow=hidden;fontFamily=Helvetica;labelBackgroundColor=none;labelBorderColor=none;fontSize=13;" parent="470" vertex="1">
                    <mxGeometry x="79" width="120" height="30" as="geometry"/>
                </mxCell>
                <mxCell id="149" value="" style="endArrow=none;html=1;fontFamily=Helvetica;fontSize=13;exitX=0;exitY=0.5;exitDx=0;exitDy=0;labelBackgroundColor=none;labelBorderColor=none;endFill=0;" parent="1" source="470" edge="1">
                    <mxGeometry relative="1" as="geometry">
                        <mxPoint x="1490" y="190" as="sourcePoint"/>
                        <mxPoint x="1100" y="370" as="targetPoint"/>
                        <Array as="points">
                            <mxPoint x="1140" y="285"/>
                            <mxPoint x="1140" y="370"/>
                        </Array>
                    </mxGeometry>
                </mxCell>
                <mxCell id="150" value="User&lt;br style=&quot;font-size: 13px&quot;&gt;can play&lt;br&gt;Instruments" style="edgeLabel;resizable=0;html=1;align=center;verticalAlign=middle;fontFamily=Helvetica;labelBorderColor=none;fontSize=13;" parent="149" connectable="0" vertex="1">
                    <mxGeometry relative="1" as="geometry">
                        <mxPoint y="23" as="offset"/>
                    </mxGeometry>
                </mxCell>
                <mxCell id="151" value="0..*" style="edgeLabel;resizable=0;html=1;align=left;verticalAlign=bottom;fontFamily=Helvetica;labelBackgroundColor=none;labelBorderColor=none;fontSize=13;" parent="149" connectable="0" vertex="1">
                    <mxGeometry x="-1" relative="1" as="geometry">
                        <mxPoint x="-31" y="25" as="offset"/>
                    </mxGeometry>
                </mxCell>
                <mxCell id="152" value="0..*" style="edgeLabel;resizable=0;html=1;align=right;verticalAlign=bottom;fontFamily=Helvetica;labelBackgroundColor=none;labelBorderColor=none;fontSize=13;" parent="149" connectable="0" vertex="1">
                    <mxGeometry x="1" relative="1" as="geometry">
                        <mxPoint x="30" as="offset"/>
                    </mxGeometry>
                </mxCell>
                <mxCell id="167" value="Instrument" style="shape=table;startSize=30;container=1;collapsible=0;childLayout=tableLayout;fixedRows=1;rowLines=0;fontStyle=1;align=center;fontFamily=Helvetica;fontSize=13;labelBackgroundColor=none;labelBorderColor=none;" parent="1" vertex="1">
                    <mxGeometry x="950" y="360" width="150" height="90" as="geometry"/>
                </mxCell>
                <mxCell id="168" value="" style="shape=partialRectangle;html=1;whiteSpace=wrap;collapsible=0;dropTarget=0;pointerEvents=0;fillColor=none;top=0;left=0;bottom=1;right=0;points=[[0,0.5],[1,0.5]];portConstraint=eastwest;fontFamily=Helvetica;labelBackgroundColor=none;labelBorderColor=none;fontSize=13;" parent="167" vertex="1">
                    <mxGeometry y="30" width="150" height="30" as="geometry"/>
                </mxCell>
                <mxCell id="169" value="ID" style="shape=partialRectangle;html=1;whiteSpace=wrap;connectable=0;fillColor=none;top=0;left=0;bottom=0;right=0;overflow=hidden;fontFamily=Helvetica;labelBackgroundColor=none;labelBorderColor=none;fontSize=13;" parent="168" vertex="1">
                    <mxGeometry width="50" height="30" as="geometry"/>
                </mxCell>
                <mxCell id="170" value="int - PK" style="shape=partialRectangle;html=1;whiteSpace=wrap;connectable=0;fillColor=none;top=0;left=0;bottom=0;right=0;align=left;spacingLeft=6;overflow=hidden;fontFamily=Helvetica;labelBackgroundColor=none;labelBorderColor=none;fontSize=13;" parent="168" vertex="1">
                    <mxGeometry x="50" width="100" height="30" as="geometry"/>
                </mxCell>
                <mxCell id="171" value="" style="shape=partialRectangle;html=1;whiteSpace=wrap;collapsible=0;dropTarget=0;pointerEvents=0;fillColor=none;top=0;left=0;bottom=0;right=0;points=[[0,0.5],[1,0.5]];portConstraint=eastwest;fontFamily=Helvetica;labelBackgroundColor=none;labelBorderColor=none;fontSize=13;" parent="167" vertex="1">
                    <mxGeometry y="60" width="150" height="30" as="geometry"/>
                </mxCell>
                <mxCell id="172" value="Name" style="shape=partialRectangle;html=1;whiteSpace=wrap;connectable=0;fillColor=none;top=0;left=0;bottom=0;right=0;overflow=hidden;fontFamily=Helvetica;labelBackgroundColor=none;labelBorderColor=none;fontSize=13;" parent="171" vertex="1">
                    <mxGeometry width="50" height="30" as="geometry"/>
                </mxCell>
                <mxCell id="173" value="CharField(30)" style="shape=partialRectangle;html=1;whiteSpace=wrap;connectable=0;fillColor=none;top=0;left=0;bottom=0;right=0;align=left;spacingLeft=6;overflow=hidden;fontFamily=Helvetica;labelBackgroundColor=none;labelBorderColor=none;fontSize=13;" parent="171" vertex="1">
                    <mxGeometry x="50" width="100" height="30" as="geometry"/>
                </mxCell>
                <mxCell id="174" value="Cover" style="shape=table;startSize=30;container=1;collapsible=0;childLayout=tableLayout;fixedRows=1;rowLines=0;fontStyle=1;align=center;fontFamily=Helvetica;fontSize=13;labelBackgroundColor=none;labelBorderColor=none;" parent="1" vertex="1">
                    <mxGeometry x="1241" y="380" width="199" height="360" as="geometry"/>
                </mxCell>
                <mxCell id="175" value="" style="shape=partialRectangle;html=1;whiteSpace=wrap;collapsible=0;dropTarget=0;pointerEvents=0;fillColor=none;top=0;left=0;bottom=1;right=0;points=[[0,0.5],[1,0.5]];portConstraint=eastwest;fontFamily=Helvetica;labelBackgroundColor=none;labelBorderColor=none;fontSize=13;" parent="174" vertex="1">
                    <mxGeometry y="30" width="199" height="30" as="geometry"/>
                </mxCell>
                <mxCell id="176" value="ID" style="shape=partialRectangle;html=1;whiteSpace=wrap;connectable=0;fillColor=none;top=0;left=0;bottom=0;right=0;overflow=hidden;fontFamily=Helvetica;labelBackgroundColor=none;labelBorderColor=none;fontSize=13;" parent="175" vertex="1">
                    <mxGeometry width="79" height="30" as="geometry"/>
                </mxCell>
                <mxCell id="177" value="int - PK" style="shape=partialRectangle;html=1;whiteSpace=wrap;connectable=0;fillColor=none;top=0;left=0;bottom=0;right=0;align=left;spacingLeft=6;overflow=hidden;fontFamily=Helvetica;labelBackgroundColor=none;labelBorderColor=none;fontSize=13;" parent="175" vertex="1">
                    <mxGeometry x="79" width="120" height="30" as="geometry"/>
                </mxCell>
                <mxCell id="259" value="" style="shape=partialRectangle;html=1;whiteSpace=wrap;collapsible=0;dropTarget=0;pointerEvents=0;fillColor=none;top=0;left=0;bottom=0;right=0;points=[[0,0.5],[1,0.5]];portConstraint=eastwest;fontFamily=Helvetica;labelBackgroundColor=none;labelBorderColor=none;fontSize=13;" parent="174" vertex="1">
                    <mxGeometry y="60" width="199" height="30" as="geometry"/>
                </mxCell>
                <mxCell id="260" value="Audio" style="shape=partialRectangle;html=1;whiteSpace=wrap;connectable=0;fillColor=none;top=0;left=0;bottom=0;right=0;overflow=hidden;fontFamily=Helvetica;labelBackgroundColor=none;labelBorderColor=none;fontSize=13;" parent="259" vertex="1">
                    <mxGeometry width="79" height="30" as="geometry"/>
                </mxCell>
                <mxCell id="261" value="FileField" style="shape=partialRectangle;html=1;whiteSpace=wrap;connectable=0;fillColor=none;top=0;left=0;bottom=0;right=0;align=left;spacingLeft=6;overflow=hidden;fontFamily=Helvetica;labelBackgroundColor=none;labelBorderColor=none;fontSize=13;" parent="259" vertex="1">
                    <mxGeometry x="79" width="120" height="30" as="geometry"/>
                </mxCell>
                <mxCell id="178" value="" style="shape=partialRectangle;html=1;whiteSpace=wrap;collapsible=0;dropTarget=0;pointerEvents=0;fillColor=none;top=0;left=0;bottom=0;right=0;points=[[0,0.5],[1,0.5]];portConstraint=eastwest;fontFamily=Helvetica;labelBackgroundColor=none;labelBorderColor=none;fontSize=13;" parent="174" vertex="1">
                    <mxGeometry y="90" width="199" height="30" as="geometry"/>
                </mxCell>
                <mxCell id="179" value="Title" style="shape=partialRectangle;html=1;whiteSpace=wrap;connectable=0;fillColor=none;top=0;left=0;bottom=0;right=0;overflow=hidden;fontFamily=Helvetica;labelBackgroundColor=none;labelBorderColor=none;fontSize=13;" parent="178" vertex="1">
                    <mxGeometry width="79" height="30" as="geometry"/>
                </mxCell>
                <mxCell id="180" value="CharField(50)" style="shape=partialRectangle;html=1;whiteSpace=wrap;connectable=0;fillColor=none;top=0;left=0;bottom=0;right=0;align=left;spacingLeft=6;overflow=hidden;fontFamily=Helvetica;labelBackgroundColor=none;labelBorderColor=none;fontSize=13;" parent="178" vertex="1">
                    <mxGeometry x="79" width="120" height="30" as="geometry"/>
                </mxCell>
                <mxCell id="181" value="" style="shape=partialRectangle;html=1;whiteSpace=wrap;collapsible=0;dropTarget=0;pointerEvents=0;fillColor=none;top=0;left=0;bottom=0;right=0;points=[[0,0.5],[1,0.5]];portConstraint=eastwest;fontFamily=Helvetica;labelBackgroundColor=none;labelBorderColor=none;fontSize=13;" parent="174" vertex="1">
                    <mxGeometry y="120" width="199" height="30" as="geometry"/>
                </mxCell>
                <mxCell id="182" value="Category" style="shape=partialRectangle;html=1;whiteSpace=wrap;connectable=0;fillColor=none;top=0;left=0;bottom=0;right=0;overflow=hidden;fontFamily=Helvetica;labelBackgroundColor=none;labelBorderColor=none;fontSize=13;" parent="181" vertex="1">
                    <mxGeometry width="79" height="30" as="geometry"/>
                </mxCell>
                <mxCell id="183" value="CharField(30)" style="shape=partialRectangle;html=1;whiteSpace=wrap;connectable=0;fillColor=none;top=0;left=0;bottom=0;right=0;align=left;spacingLeft=6;overflow=hidden;fontFamily=Helvetica;labelBackgroundColor=none;labelBorderColor=none;fontSize=13;" parent="181" vertex="1">
                    <mxGeometry x="79" width="120" height="30" as="geometry"/>
                </mxCell>
                <mxCell id="184" value="" style="shape=partialRectangle;html=1;whiteSpace=wrap;collapsible=0;dropTarget=0;pointerEvents=0;fillColor=none;top=0;left=0;bottom=0;right=0;points=[[0,0.5],[1,0.5]];portConstraint=eastwest;fontFamily=Helvetica;labelBackgroundColor=none;labelBorderColor=none;fontSize=13;" parent="174" vertex="1">
                    <mxGeometry y="150" width="199" height="30" as="geometry"/>
                </mxCell>
                <mxCell id="185" value="Description" style="shape=partialRectangle;html=1;whiteSpace=wrap;connectable=0;fillColor=none;top=0;left=0;bottom=0;right=0;overflow=hidden;fontFamily=Helvetica;labelBackgroundColor=none;labelBorderColor=none;fontSize=13;" parent="184" vertex="1">
                    <mxGeometry width="79" height="30" as="geometry"/>
                </mxCell>
                <mxCell id="186" value="TextField" style="shape=partialRectangle;html=1;whiteSpace=wrap;connectable=0;fillColor=none;top=0;left=0;bottom=0;right=0;align=left;spacingLeft=6;overflow=hidden;fontFamily=Helvetica;labelBackgroundColor=none;labelBorderColor=none;fontSize=13;" parent="184" vertex="1">
                    <mxGeometry x="79" width="120" height="30" as="geometry"/>
                </mxCell>
                <mxCell id="192" value="" style="shape=partialRectangle;html=1;whiteSpace=wrap;collapsible=0;dropTarget=0;pointerEvents=0;fillColor=none;top=0;left=0;bottom=0;right=0;points=[[0,0.5],[1,0.5]];portConstraint=eastwest;fontFamily=Helvetica;labelBackgroundColor=none;labelBorderColor=none;fontSize=13;" parent="174" vertex="1">
                    <mxGeometry y="180" width="199" height="30" as="geometry"/>
                </mxCell>
                <mxCell id="193" value="UserID" style="shape=partialRectangle;html=1;whiteSpace=wrap;connectable=0;fillColor=none;top=0;left=0;bottom=0;right=0;overflow=hidden;fontFamily=Helvetica;labelBackgroundColor=none;labelBorderColor=none;fontSize=13;" parent="192" vertex="1">
                    <mxGeometry width="79" height="30" as="geometry"/>
                </mxCell>
                <mxCell id="194" value="int - FK" style="shape=partialRectangle;html=1;whiteSpace=wrap;connectable=0;fillColor=none;top=0;left=0;bottom=0;right=0;align=left;spacingLeft=6;overflow=hidden;fontFamily=Helvetica;labelBackgroundColor=none;labelBorderColor=none;fontSize=13;" parent="192" vertex="1">
                    <mxGeometry x="79" width="120" height="30" as="geometry"/>
                </mxCell>
                <mxCell id="195" value="" style="shape=partialRectangle;html=1;whiteSpace=wrap;collapsible=0;dropTarget=0;pointerEvents=0;fillColor=none;top=0;left=0;bottom=0;right=0;points=[[0,0.5],[1,0.5]];portConstraint=eastwest;fontFamily=Helvetica;labelBackgroundColor=none;labelBorderColor=none;fontSize=13;" parent="174" vertex="1">
                    <mxGeometry y="210" width="199" height="30" as="geometry"/>
                </mxCell>
                <mxCell id="196" value="InstrumentID" style="shape=partialRectangle;html=1;whiteSpace=wrap;connectable=0;fillColor=none;top=0;left=0;bottom=0;right=0;overflow=hidden;fontFamily=Helvetica;labelBackgroundColor=none;labelBorderColor=none;fontSize=13;" parent="195" vertex="1">
                    <mxGeometry width="79" height="30" as="geometry"/>
                </mxCell>
                <mxCell id="197" value="int - FK" style="shape=partialRectangle;html=1;whiteSpace=wrap;connectable=0;fillColor=none;top=0;left=0;bottom=0;right=0;align=left;spacingLeft=6;overflow=hidden;fontFamily=Helvetica;labelBackgroundColor=none;labelBorderColor=none;fontSize=13;" parent="195" vertex="1">
                    <mxGeometry x="79" width="120" height="30" as="geometry"/>
                </mxCell>
                <mxCell id="217" value="" style="shape=partialRectangle;html=1;whiteSpace=wrap;collapsible=0;dropTarget=0;pointerEvents=0;fillColor=none;top=0;left=0;bottom=0;right=0;points=[[0,0.5],[1,0.5]];portConstraint=eastwest;fontFamily=Helvetica;labelBackgroundColor=none;labelBorderColor=none;fontSize=13;" parent="174" vertex="1">
                    <mxGeometry y="240" width="199" height="30" as="geometry"/>
                </mxCell>
                <mxCell id="218" value="SongID" style="shape=partialRectangle;html=1;whiteSpace=wrap;connectable=0;fillColor=none;top=0;left=0;bottom=0;right=0;overflow=hidden;fontFamily=Helvetica;labelBackgroundColor=none;labelBorderColor=none;fontSize=13;" parent="217" vertex="1">
                    <mxGeometry width="79" height="30" as="geometry"/>
                </mxCell>
                <mxCell id="219" value="int - FK" style="shape=partialRectangle;html=1;whiteSpace=wrap;connectable=0;fillColor=none;top=0;left=0;bottom=0;right=0;align=left;spacingLeft=6;overflow=hidden;fontFamily=Helvetica;labelBackgroundColor=none;labelBorderColor=none;fontSize=13;" parent="217" vertex="1">
                    <mxGeometry x="79" width="120" height="30" as="geometry"/>
                </mxCell>
                <mxCell id="467" value="" style="shape=partialRectangle;html=1;whiteSpace=wrap;collapsible=0;dropTarget=0;pointerEvents=0;fillColor=none;top=0;left=0;bottom=0;right=0;points=[[0,0.5],[1,0.5]];portConstraint=eastwest;fontFamily=Helvetica;labelBackgroundColor=none;labelBorderColor=none;fontSize=13;" parent="174" vertex="1">
                    <mxGeometry y="270" width="199" height="30" as="geometry"/>
                </mxCell>
                <mxCell id="468" value="Tags" style="shape=partialRectangle;html=1;whiteSpace=wrap;connectable=0;fillColor=none;top=0;left=0;bottom=0;right=0;overflow=hidden;fontFamily=Helvetica;labelBackgroundColor=none;labelBorderColor=none;fontSize=13;" parent="467" vertex="1">
                    <mxGeometry width="79" height="30" as="geometry"/>
                </mxCell>
                <mxCell id="469" value="ManyToManyField" style="shape=partialRectangle;html=1;whiteSpace=wrap;connectable=0;fillColor=none;top=0;left=0;bottom=0;right=0;align=left;spacingLeft=6;overflow=hidden;fontFamily=Helvetica;labelBackgroundColor=none;labelBorderColor=none;fontSize=13;" parent="467" vertex="1">
                    <mxGeometry x="79" width="120" height="30" as="geometry"/>
                </mxCell>
                <mxCell id="511" value="" style="shape=partialRectangle;html=1;whiteSpace=wrap;collapsible=0;dropTarget=0;pointerEvents=0;fillColor=none;top=0;left=0;bottom=0;right=0;points=[[0,0.5],[1,0.5]];portConstraint=eastwest;fontFamily=Helvetica;labelBackgroundColor=none;labelBorderColor=none;fontSize=13;" vertex="1" parent="174">
                    <mxGeometry y="300" width="199" height="30" as="geometry"/>
                </mxCell>
                <mxCell id="512" value="Likes" style="shape=partialRectangle;html=1;whiteSpace=wrap;connectable=0;fillColor=none;top=0;left=0;bottom=0;right=0;overflow=hidden;fontFamily=Helvetica;labelBackgroundColor=none;labelBorderColor=none;fontSize=13;" vertex="1" parent="511">
                    <mxGeometry width="79" height="30" as="geometry"/>
                </mxCell>
                <mxCell id="513" value="ManyToManyField" style="shape=partialRectangle;html=1;whiteSpace=wrap;connectable=0;fillColor=none;top=0;left=0;bottom=0;right=0;align=left;spacingLeft=6;overflow=hidden;fontFamily=Helvetica;labelBackgroundColor=none;labelBorderColor=none;fontSize=13;" vertex="1" parent="511">
                    <mxGeometry x="79" width="120" height="30" as="geometry"/>
                </mxCell>
                <mxCell id="514" value="" style="shape=partialRectangle;html=1;whiteSpace=wrap;collapsible=0;dropTarget=0;pointerEvents=0;fillColor=none;top=0;left=0;bottom=0;right=0;points=[[0,0.5],[1,0.5]];portConstraint=eastwest;fontFamily=Helvetica;labelBackgroundColor=none;labelBorderColor=none;fontSize=13;" vertex="1" parent="174">
                    <mxGeometry y="330" width="199" height="30" as="geometry"/>
                </mxCell>
                <mxCell id="515" value="Views" style="shape=partialRectangle;html=1;whiteSpace=wrap;connectable=0;fillColor=none;top=0;left=0;bottom=0;right=0;overflow=hidden;fontFamily=Helvetica;labelBackgroundColor=none;labelBorderColor=none;fontSize=13;" vertex="1" parent="514">
                    <mxGeometry width="79" height="30" as="geometry"/>
                </mxCell>
                <mxCell id="516" value="int" style="shape=partialRectangle;html=1;whiteSpace=wrap;connectable=0;fillColor=none;top=0;left=0;bottom=0;right=0;align=left;spacingLeft=6;overflow=hidden;fontFamily=Helvetica;labelBackgroundColor=none;labelBorderColor=none;fontSize=13;" vertex="1" parent="514">
                    <mxGeometry x="79" width="120" height="30" as="geometry"/>
                </mxCell>
                <mxCell id="198" value="" style="endArrow=none;html=1;fontFamily=Helvetica;fontSize=13;labelBackgroundColor=none;labelBorderColor=none;endFill=0;entryX=1;entryY=0.189;entryDx=0;entryDy=0;entryPerimeter=0;exitX=0;exitY=0.5;exitDx=0;exitDy=0;" parent="1" source="195" target="167" edge="1">
                    <mxGeometry relative="1" as="geometry">
                        <mxPoint x="1170" y="570" as="sourcePoint"/>
                        <mxPoint x="1670" y="200" as="targetPoint"/>
                        <Array as="points">
                            <mxPoint x="1140" y="605"/>
                            <mxPoint x="1140" y="377"/>
                        </Array>
                    </mxGeometry>
                </mxCell>
                <mxCell id="199" value="Cover&lt;br style=&quot;font-size: 13px&quot;&gt;done by&lt;br&gt;Instrument" style="edgeLabel;resizable=0;html=1;align=center;verticalAlign=middle;fontFamily=Helvetica;labelBorderColor=none;fontSize=13;" parent="198" connectable="0" vertex="1">
                    <mxGeometry relative="1" as="geometry">
                        <mxPoint x="-10" y="-21" as="offset"/>
                    </mxGeometry>
                </mxCell>
                <mxCell id="200" value="1..1" style="edgeLabel;resizable=0;html=1;align=left;verticalAlign=bottom;fontFamily=Helvetica;labelBackgroundColor=none;labelBorderColor=none;fontSize=13;" parent="198" connectable="0" vertex="1">
                    <mxGeometry x="-1" relative="1" as="geometry">
                        <mxPoint x="-28" y="22" as="offset"/>
                    </mxGeometry>
                </mxCell>
                <mxCell id="201" value="0..*" style="edgeLabel;resizable=0;html=1;align=right;verticalAlign=bottom;fontFamily=Helvetica;labelBackgroundColor=none;labelBorderColor=none;fontSize=13;" parent="198" connectable="0" vertex="1">
                    <mxGeometry x="1" relative="1" as="geometry">
                        <mxPoint x="30" y="23" as="offset"/>
                    </mxGeometry>
                </mxCell>
                <mxCell id="202" value="Combination" style="shape=table;startSize=30;container=1;collapsible=0;childLayout=tableLayout;fixedRows=1;rowLines=0;fontStyle=1;align=center;fontFamily=Helvetica;fontSize=13;labelBackgroundColor=none;labelBorderColor=none;" parent="1" vertex="1">
                    <mxGeometry x="1640" y="360" width="200" height="180" as="geometry"/>
                </mxCell>
                <mxCell id="203" value="" style="shape=partialRectangle;html=1;whiteSpace=wrap;collapsible=0;dropTarget=0;pointerEvents=0;fillColor=none;top=0;left=0;bottom=1;right=0;points=[[0,0.5],[1,0.5]];portConstraint=eastwest;fontFamily=Helvetica;labelBackgroundColor=none;labelBorderColor=none;fontSize=13;" parent="202" vertex="1">
                    <mxGeometry y="30" width="200" height="30" as="geometry"/>
                </mxCell>
                <mxCell id="204" value="ID" style="shape=partialRectangle;html=1;whiteSpace=wrap;connectable=0;fillColor=none;top=0;left=0;bottom=0;right=0;overflow=hidden;fontFamily=Helvetica;labelBackgroundColor=none;labelBorderColor=none;fontSize=13;" parent="203" vertex="1">
                    <mxGeometry width="70" height="30" as="geometry"/>
                </mxCell>
                <mxCell id="205" value="int - PK" style="shape=partialRectangle;html=1;whiteSpace=wrap;connectable=0;fillColor=none;top=0;left=0;bottom=0;right=0;align=left;spacingLeft=6;overflow=hidden;fontFamily=Helvetica;labelBackgroundColor=none;labelBorderColor=none;fontSize=13;" parent="203" vertex="1">
                    <mxGeometry x="70" width="130" height="30" as="geometry"/>
                </mxCell>
                <mxCell id="206" value="" style="shape=partialRectangle;html=1;whiteSpace=wrap;collapsible=0;dropTarget=0;pointerEvents=0;fillColor=none;top=0;left=0;bottom=0;right=0;points=[[0,0.5],[1,0.5]];portConstraint=eastwest;fontFamily=Helvetica;labelBackgroundColor=none;labelBorderColor=none;fontSize=13;" parent="202" vertex="1">
                    <mxGeometry y="60" width="200" height="30" as="geometry"/>
                </mxCell>
                <mxCell id="207" value="Views" style="shape=partialRectangle;html=1;whiteSpace=wrap;connectable=0;fillColor=none;top=0;left=0;bottom=0;right=0;overflow=hidden;fontFamily=Helvetica;labelBackgroundColor=none;labelBorderColor=none;fontSize=13;" parent="206" vertex="1">
                    <mxGeometry width="70" height="30" as="geometry"/>
                </mxCell>
                <mxCell id="208" value="int" style="shape=partialRectangle;html=1;whiteSpace=wrap;connectable=0;fillColor=none;top=0;left=0;bottom=0;right=0;align=left;spacingLeft=6;overflow=hidden;fontFamily=Helvetica;labelBackgroundColor=none;labelBorderColor=none;fontSize=13;" parent="206" vertex="1">
                    <mxGeometry x="70" width="130" height="30" as="geometry"/>
                </mxCell>
                <mxCell id="406" value="" style="shape=partialRectangle;html=1;whiteSpace=wrap;collapsible=0;dropTarget=0;pointerEvents=0;fillColor=none;top=0;left=0;bottom=0;right=0;points=[[0,0.5],[1,0.5]];portConstraint=eastwest;fontFamily=Helvetica;labelBackgroundColor=none;labelBorderColor=none;fontSize=13;" parent="202" vertex="1">
                    <mxGeometry y="90" width="200" height="30" as="geometry"/>
                </mxCell>
                <mxCell id="407" value="SongID" style="shape=partialRectangle;html=1;whiteSpace=wrap;connectable=0;fillColor=none;top=0;left=0;bottom=0;right=0;overflow=hidden;fontFamily=Helvetica;labelBackgroundColor=none;labelBorderColor=none;fontSize=13;" parent="406" vertex="1">
                    <mxGeometry width="70" height="30" as="geometry"/>
                </mxCell>
                <mxCell id="408" value="int - FK" style="shape=partialRectangle;html=1;whiteSpace=wrap;connectable=0;fillColor=none;top=0;left=0;bottom=0;right=0;align=left;spacingLeft=6;overflow=hidden;fontFamily=Helvetica;labelBackgroundColor=none;labelBorderColor=none;fontSize=13;" parent="406" vertex="1">
                    <mxGeometry x="70" width="130" height="30" as="geometry"/>
                </mxCell>
                <mxCell id="482" value="" style="shape=partialRectangle;html=1;whiteSpace=wrap;collapsible=0;dropTarget=0;pointerEvents=0;fillColor=none;top=0;left=0;bottom=0;right=0;points=[[0,0.5],[1,0.5]];portConstraint=eastwest;fontFamily=Helvetica;labelBackgroundColor=none;labelBorderColor=none;fontSize=13;" parent="202" vertex="1">
                    <mxGeometry y="120" width="200" height="30" as="geometry"/>
                </mxCell>
                <mxCell id="483" value="Covers" style="shape=partialRectangle;html=1;whiteSpace=wrap;connectable=0;fillColor=none;top=0;left=0;bottom=0;right=0;overflow=hidden;fontFamily=Helvetica;labelBackgroundColor=none;labelBorderColor=none;fontSize=13;" parent="482" vertex="1">
                    <mxGeometry width="70" height="30" as="geometry"/>
                </mxCell>
                <mxCell id="484" value="ManyToManyField" style="shape=partialRectangle;html=1;whiteSpace=wrap;connectable=0;fillColor=none;top=0;left=0;bottom=0;right=0;align=left;spacingLeft=6;overflow=hidden;fontFamily=Helvetica;labelBackgroundColor=none;labelBorderColor=none;fontSize=13;" parent="482" vertex="1">
                    <mxGeometry x="70" width="130" height="30" as="geometry"/>
                </mxCell>
                <mxCell id="504" value="" style="shape=partialRectangle;html=1;whiteSpace=wrap;collapsible=0;dropTarget=0;pointerEvents=0;fillColor=none;top=0;left=0;bottom=0;right=0;points=[[0,0.5],[1,0.5]];portConstraint=eastwest;fontFamily=Helvetica;labelBackgroundColor=none;labelBorderColor=none;fontSize=13;" vertex="1" parent="202">
                    <mxGeometry y="150" width="200" height="30" as="geometry"/>
                </mxCell>
                <mxCell id="505" value="Likes" style="shape=partialRectangle;html=1;whiteSpace=wrap;connectable=0;fillColor=none;top=0;left=0;bottom=0;right=0;overflow=hidden;fontFamily=Helvetica;labelBackgroundColor=none;labelBorderColor=none;fontSize=13;" vertex="1" parent="504">
                    <mxGeometry width="70" height="30" as="geometry"/>
                </mxCell>
                <mxCell id="506" value="ManyToManyField" style="shape=partialRectangle;html=1;whiteSpace=wrap;connectable=0;fillColor=none;top=0;left=0;bottom=0;right=0;align=left;spacingLeft=6;overflow=hidden;fontFamily=Helvetica;labelBackgroundColor=none;labelBorderColor=none;fontSize=13;" vertex="1" parent="504">
                    <mxGeometry x="70" width="130" height="30" as="geometry"/>
                </mxCell>
                <mxCell id="227" value="" style="endArrow=none;html=1;fontFamily=Helvetica;fontSize=13;labelBackgroundColor=none;labelBorderColor=none;endFill=0;exitX=0;exitY=0.5;exitDx=0;exitDy=0;" parent="1" source="482" edge="1">
                    <mxGeometry relative="1" as="geometry">
                        <mxPoint x="1640" y="380" as="sourcePoint"/>
                        <mxPoint x="1440" y="394" as="targetPoint"/>
                        <Array as="points">
                            <mxPoint x="1600" y="495"/>
                            <mxPoint x="1600" y="394"/>
                        </Array>
                    </mxGeometry>
                </mxCell>
                <mxCell id="228" value="Combination&lt;br style=&quot;font-size: 13px&quot;&gt;contains&lt;br&gt;Covers" style="edgeLabel;resizable=0;html=1;align=center;verticalAlign=middle;fontFamily=Helvetica;labelBorderColor=none;fontSize=13;labelBackgroundColor=#ffffff;" parent="227" connectable="0" vertex="1">
                    <mxGeometry relative="1" as="geometry">
                        <mxPoint x="10" y="46" as="offset"/>
                    </mxGeometry>
                </mxCell>
                <mxCell id="229" value="1..*" style="edgeLabel;resizable=0;html=1;align=left;verticalAlign=bottom;fontFamily=Helvetica;labelBackgroundColor=none;labelBorderColor=none;fontSize=13;" parent="227" connectable="0" vertex="1">
                    <mxGeometry x="-1" relative="1" as="geometry">
                        <mxPoint x="-28" y="-3" as="offset"/>
                    </mxGeometry>
                </mxCell>
                <mxCell id="230" value="0..*" style="edgeLabel;resizable=0;html=1;align=right;verticalAlign=bottom;fontFamily=Helvetica;labelBackgroundColor=none;labelBorderColor=none;fontSize=13;" parent="227" connectable="0" vertex="1">
                    <mxGeometry x="1" relative="1" as="geometry">
                        <mxPoint x="29" y="-5" as="offset"/>
                    </mxGeometry>
                </mxCell>
                <mxCell id="231" value="" style="endArrow=none;html=1;fontFamily=Helvetica;fontSize=13;labelBackgroundColor=none;labelBorderColor=none;endFill=0;exitX=0;exitY=0.5;exitDx=0;exitDy=0;entryX=0.993;entryY=0.167;entryDx=0;entryDy=0;entryPerimeter=0;" parent="1" source="467" target="235" edge="1">
                    <mxGeometry relative="1" as="geometry">
                        <mxPoint x="1230" y="640" as="sourcePoint"/>
                        <mxPoint x="1089" y="575" as="targetPoint"/>
                        <Array as="points"/>
                    </mxGeometry>
                </mxCell>
                <mxCell id="232" value="Cover&lt;br style=&quot;font-size: 13px&quot;&gt;can have&lt;br style=&quot;font-size: 13px&quot;&gt;CoverTags" style="edgeLabel;resizable=0;html=1;align=center;verticalAlign=middle;fontFamily=Helvetica;labelBorderColor=none;fontSize=13;labelBackgroundColor=#ffffff;" parent="231" connectable="0" vertex="1">
                    <mxGeometry relative="1" as="geometry">
                        <mxPoint x="-5" y="5" as="offset"/>
                    </mxGeometry>
                </mxCell>
                <mxCell id="233" value="0..*" style="edgeLabel;resizable=0;html=1;align=left;verticalAlign=bottom;fontFamily=Helvetica;labelBackgroundColor=none;labelBorderColor=none;fontSize=13;" parent="231" connectable="0" vertex="1">
                    <mxGeometry x="-1" relative="1" as="geometry">
                        <mxPoint x="-27" as="offset"/>
                    </mxGeometry>
                </mxCell>
                <mxCell id="234" value="1..*" style="edgeLabel;resizable=0;html=1;align=right;verticalAlign=bottom;fontFamily=Helvetica;labelBackgroundColor=none;labelBorderColor=none;fontSize=13;" parent="231" connectable="0" vertex="1">
                    <mxGeometry x="1" relative="1" as="geometry">
                        <mxPoint x="28" y="-3" as="offset"/>
                    </mxGeometry>
                </mxCell>
                <mxCell id="235" value="CoverTag" style="shape=table;startSize=30;container=1;collapsible=0;childLayout=tableLayout;fixedRows=1;rowLines=0;fontStyle=1;align=center;fontFamily=Helvetica;fontSize=13;labelBackgroundColor=none;labelBorderColor=none;" parent="1" vertex="1">
                    <mxGeometry x="950" y="650" width="150" height="90" as="geometry"/>
                </mxCell>
                <mxCell id="236" value="" style="shape=partialRectangle;html=1;whiteSpace=wrap;collapsible=0;dropTarget=0;pointerEvents=0;fillColor=none;top=0;left=0;bottom=1;right=0;points=[[0,0.5],[1,0.5]];portConstraint=eastwest;fontFamily=Helvetica;labelBackgroundColor=none;labelBorderColor=none;fontSize=13;" parent="235" vertex="1">
                    <mxGeometry y="30" width="150" height="30" as="geometry"/>
                </mxCell>
                <mxCell id="237" value="ID" style="shape=partialRectangle;html=1;whiteSpace=wrap;connectable=0;fillColor=none;top=0;left=0;bottom=0;right=0;overflow=hidden;fontFamily=Helvetica;labelBackgroundColor=none;labelBorderColor=none;fontSize=13;" parent="236" vertex="1">
                    <mxGeometry width="50" height="30" as="geometry"/>
                </mxCell>
                <mxCell id="238" value="int - PK" style="shape=partialRectangle;html=1;whiteSpace=wrap;connectable=0;fillColor=none;top=0;left=0;bottom=0;right=0;align=left;spacingLeft=6;overflow=hidden;fontFamily=Helvetica;labelBackgroundColor=none;labelBorderColor=none;fontSize=13;" parent="236" vertex="1">
                    <mxGeometry x="50" width="100" height="30" as="geometry"/>
                </mxCell>
                <mxCell id="239" value="" style="shape=partialRectangle;html=1;whiteSpace=wrap;collapsible=0;dropTarget=0;pointerEvents=0;fillColor=none;top=0;left=0;bottom=0;right=0;points=[[0,0.5],[1,0.5]];portConstraint=eastwest;fontFamily=Helvetica;labelBackgroundColor=none;labelBorderColor=none;fontSize=13;" parent="235" vertex="1">
                    <mxGeometry y="60" width="150" height="30" as="geometry"/>
                </mxCell>
                <mxCell id="240" value="Name" style="shape=partialRectangle;html=1;whiteSpace=wrap;connectable=0;fillColor=none;top=0;left=0;bottom=0;right=0;overflow=hidden;fontFamily=Helvetica;labelBackgroundColor=none;labelBorderColor=none;fontSize=13;" parent="239" vertex="1">
                    <mxGeometry width="50" height="30" as="geometry"/>
                </mxCell>
                <mxCell id="241" value="CharField(30)" style="shape=partialRectangle;html=1;whiteSpace=wrap;connectable=0;fillColor=none;top=0;left=0;bottom=0;right=0;align=left;spacingLeft=6;overflow=hidden;fontFamily=Helvetica;labelBackgroundColor=none;labelBorderColor=none;fontSize=13;" parent="239" vertex="1">
                    <mxGeometry x="50" width="100" height="30" as="geometry"/>
                </mxCell>
                <mxCell id="245" value="Song" style="shape=table;startSize=30;container=1;collapsible=0;childLayout=tableLayout;fixedRows=1;rowLines=0;fontStyle=1;align=center;fontFamily=Helvetica;fontSize=13;labelBackgroundColor=none;labelBorderColor=none;" parent="1" vertex="1">
                    <mxGeometry x="1640" y="620" width="200" height="210" as="geometry"/>
                </mxCell>
                <mxCell id="246" value="" style="shape=partialRectangle;html=1;whiteSpace=wrap;collapsible=0;dropTarget=0;pointerEvents=0;fillColor=none;top=0;left=0;bottom=1;right=0;points=[[0,0.5],[1,0.5]];portConstraint=eastwest;fontFamily=Helvetica;labelBackgroundColor=none;labelBorderColor=none;fontSize=13;" parent="245" vertex="1">
                    <mxGeometry y="30" width="200" height="30" as="geometry"/>
                </mxCell>
                <mxCell id="247" value="ID" style="shape=partialRectangle;html=1;whiteSpace=wrap;connectable=0;fillColor=none;top=0;left=0;bottom=0;right=0;overflow=hidden;fontFamily=Helvetica;labelBackgroundColor=none;labelBorderColor=none;fontSize=13;" parent="246" vertex="1">
                    <mxGeometry width="89" height="30" as="geometry"/>
                </mxCell>
                <mxCell id="248" value="int - PK" style="shape=partialRectangle;html=1;whiteSpace=wrap;connectable=0;fillColor=none;top=0;left=0;bottom=0;right=0;align=left;spacingLeft=6;overflow=hidden;fontFamily=Helvetica;labelBackgroundColor=none;labelBorderColor=none;fontSize=13;" parent="246" vertex="1">
                    <mxGeometry x="89" width="111" height="30" as="geometry"/>
                </mxCell>
                <mxCell id="249" value="" style="shape=partialRectangle;html=1;whiteSpace=wrap;collapsible=0;dropTarget=0;pointerEvents=0;fillColor=none;top=0;left=0;bottom=0;right=0;points=[[0,0.5],[1,0.5]];portConstraint=eastwest;fontFamily=Helvetica;labelBackgroundColor=none;labelBorderColor=none;fontSize=13;" parent="245" vertex="1">
                    <mxGeometry y="60" width="200" height="30" as="geometry"/>
                </mxCell>
                <mxCell id="250" value="Title" style="shape=partialRectangle;html=1;whiteSpace=wrap;connectable=0;fillColor=none;top=0;left=0;bottom=0;right=0;overflow=hidden;fontFamily=Helvetica;labelBackgroundColor=none;labelBorderColor=none;fontSize=13;" parent="249" vertex="1">
                    <mxGeometry width="89" height="30" as="geometry"/>
                </mxCell>
                <mxCell id="251" value="CharField(50)" style="shape=partialRectangle;html=1;whiteSpace=wrap;connectable=0;fillColor=none;top=0;left=0;bottom=0;right=0;align=left;spacingLeft=6;overflow=hidden;fontFamily=Helvetica;labelBackgroundColor=none;labelBorderColor=none;fontSize=13;" parent="249" vertex="1">
                    <mxGeometry x="89" width="111" height="30" as="geometry"/>
                </mxCell>
                <mxCell id="252" value="" style="shape=partialRectangle;html=1;whiteSpace=wrap;collapsible=0;dropTarget=0;pointerEvents=0;fillColor=none;top=0;left=0;bottom=0;right=0;points=[[0,0.5],[1,0.5]];portConstraint=eastwest;fontFamily=Helvetica;labelBackgroundColor=none;labelBorderColor=none;fontSize=13;" parent="245" vertex="1">
                    <mxGeometry y="90" width="200" height="30" as="geometry"/>
                </mxCell>
                <mxCell id="253" value="Singer" style="shape=partialRectangle;html=1;whiteSpace=wrap;connectable=0;fillColor=none;top=0;left=0;bottom=0;right=0;overflow=hidden;fontFamily=Helvetica;labelBackgroundColor=none;labelBorderColor=none;fontSize=13;" parent="252" vertex="1">
                    <mxGeometry width="89" height="30" as="geometry"/>
                </mxCell>
                <mxCell id="254" value="CharField(50)" style="shape=partialRectangle;html=1;whiteSpace=wrap;connectable=0;fillColor=none;top=0;left=0;bottom=0;right=0;align=left;spacingLeft=6;overflow=hidden;fontFamily=Helvetica;labelBackgroundColor=none;labelBorderColor=none;fontSize=13;" parent="252" vertex="1">
                    <mxGeometry x="89" width="111" height="30" as="geometry"/>
                </mxCell>
                <mxCell id="262" value="" style="shape=partialRectangle;html=1;whiteSpace=wrap;collapsible=0;dropTarget=0;pointerEvents=0;fillColor=none;top=0;left=0;bottom=0;right=0;points=[[0,0.5],[1,0.5]];portConstraint=eastwest;fontFamily=Helvetica;labelBackgroundColor=none;labelBorderColor=none;fontSize=13;" parent="245" vertex="1">
                    <mxGeometry y="120" width="200" height="30" as="geometry"/>
                </mxCell>
                <mxCell id="263" value="Category" style="shape=partialRectangle;html=1;whiteSpace=wrap;connectable=0;fillColor=none;top=0;left=0;bottom=0;right=0;overflow=hidden;fontFamily=Helvetica;labelBackgroundColor=none;labelBorderColor=none;fontSize=13;" parent="262" vertex="1">
                    <mxGeometry width="89" height="30" as="geometry"/>
                </mxCell>
                <mxCell id="264" value="CharField(30)" style="shape=partialRectangle;html=1;whiteSpace=wrap;connectable=0;fillColor=none;top=0;left=0;bottom=0;right=0;align=left;spacingLeft=6;overflow=hidden;fontFamily=Helvetica;labelBackgroundColor=none;labelBorderColor=none;fontSize=13;" parent="262" vertex="1">
                    <mxGeometry x="89" width="111" height="30" as="geometry"/>
                </mxCell>
                <mxCell id="268" value="" style="shape=partialRectangle;html=1;whiteSpace=wrap;collapsible=0;dropTarget=0;pointerEvents=0;fillColor=none;top=0;left=0;bottom=0;right=0;points=[[0,0.5],[1,0.5]];portConstraint=eastwest;fontFamily=Helvetica;labelBackgroundColor=none;labelBorderColor=none;fontSize=13;" parent="245" vertex="1">
                    <mxGeometry y="150" width="200" height="30" as="geometry"/>
                </mxCell>
                <mxCell id="269" value="Reference" style="shape=partialRectangle;html=1;whiteSpace=wrap;connectable=0;fillColor=none;top=0;left=0;bottom=0;right=0;overflow=hidden;fontFamily=Helvetica;labelBackgroundColor=none;labelBorderColor=none;fontSize=13;" parent="268" vertex="1">
                    <mxGeometry width="89" height="30" as="geometry"/>
                </mxCell>
                <mxCell id="270" value="CharField(255)" style="shape=partialRectangle;html=1;whiteSpace=wrap;connectable=0;fillColor=none;top=0;left=0;bottom=0;right=0;align=left;spacingLeft=6;overflow=hidden;fontFamily=Helvetica;labelBackgroundColor=none;labelBorderColor=none;fontSize=13;" parent="268" vertex="1">
                    <mxGeometry x="89" width="111" height="30" as="geometry"/>
                </mxCell>
                <mxCell id="271" value="" style="shape=partialRectangle;html=1;whiteSpace=wrap;collapsible=0;dropTarget=0;pointerEvents=0;fillColor=none;top=0;left=0;bottom=0;right=0;points=[[0,0.5],[1,0.5]];portConstraint=eastwest;fontFamily=Helvetica;labelBackgroundColor=none;labelBorderColor=none;fontSize=13;" parent="245" vertex="1">
                    <mxGeometry y="180" width="200" height="30" as="geometry"/>
                </mxCell>
                <mxCell id="272" value="Description" style="shape=partialRectangle;html=1;whiteSpace=wrap;connectable=0;fillColor=none;top=0;left=0;bottom=0;right=0;overflow=hidden;fontFamily=Helvetica;labelBackgroundColor=none;labelBorderColor=none;fontSize=13;" parent="271" vertex="1">
                    <mxGeometry width="89" height="30" as="geometry"/>
                </mxCell>
                <mxCell id="273" value="TextField" style="shape=partialRectangle;html=1;whiteSpace=wrap;connectable=0;fillColor=none;top=0;left=0;bottom=0;right=0;align=left;spacingLeft=6;overflow=hidden;fontFamily=Helvetica;labelBackgroundColor=none;labelBorderColor=none;fontSize=13;" parent="271" vertex="1">
                    <mxGeometry x="89" width="111" height="30" as="geometry"/>
                </mxCell>
                <mxCell id="255" value="" style="endArrow=none;html=1;fontFamily=Helvetica;fontSize=13;labelBackgroundColor=none;labelBorderColor=none;endFill=0;entryX=1.005;entryY=0.076;entryDx=0;entryDy=0;exitX=1;exitY=0.5;exitDx=0;exitDy=0;entryPerimeter=0;" parent="1" source="406" target="245" edge="1">
                    <mxGeometry relative="1" as="geometry">
                        <mxPoint x="1740" y="510" as="sourcePoint"/>
                        <mxPoint x="1750" y="560" as="targetPoint"/>
                        <Array as="points">
                            <mxPoint x="1870" y="465"/>
                            <mxPoint x="1870" y="636"/>
                        </Array>
                    </mxGeometry>
                </mxCell>
                <mxCell id="256" value="Song&lt;br style=&quot;font-size: 13px&quot;&gt;can have&lt;br&gt;Combinations" style="edgeLabel;resizable=0;html=1;align=center;verticalAlign=middle;fontFamily=Helvetica;labelBorderColor=none;fontSize=13;labelBackgroundColor=#ffffff;" parent="255" connectable="0" vertex="1">
                    <mxGeometry relative="1" as="geometry">
                        <mxPoint x="20" y="10" as="offset"/>
                    </mxGeometry>
                </mxCell>
                <mxCell id="257" value="1..1" style="edgeLabel;resizable=0;html=1;align=left;verticalAlign=bottom;fontFamily=Helvetica;labelBackgroundColor=none;labelBorderColor=none;fontSize=13;" parent="255" connectable="0" vertex="1">
                    <mxGeometry x="-1" relative="1" as="geometry">
                        <mxPoint x="10" y="-5" as="offset"/>
                    </mxGeometry>
                </mxCell>
                <mxCell id="258" value="0..*" style="edgeLabel;resizable=0;html=1;align=right;verticalAlign=bottom;fontFamily=Helvetica;labelBackgroundColor=none;labelBorderColor=none;fontSize=13;" parent="255" connectable="0" vertex="1">
                    <mxGeometry x="1" relative="1" as="geometry">
                        <mxPoint x="29" y="24" as="offset"/>
                    </mxGeometry>
                </mxCell>
                <mxCell id="274" value="" style="endArrow=none;html=1;fontFamily=Helvetica;fontSize=13;labelBackgroundColor=none;labelBorderColor=none;endFill=0;entryX=1;entryY=0.5;entryDx=0;entryDy=0;exitX=-0.005;exitY=0.076;exitDx=0;exitDy=0;exitPerimeter=0;" parent="1" target="217" edge="1" source="245">
                    <mxGeometry relative="1" as="geometry">
                        <mxPoint x="1620" y="635" as="sourcePoint"/>
                        <mxPoint x="1445" y="637" as="targetPoint"/>
                    </mxGeometry>
                </mxCell>
                <mxCell id="275" value="Song&lt;br style=&quot;font-size: 13px&quot;&gt;can have&lt;br&gt;Covers" style="edgeLabel;resizable=0;html=1;align=center;verticalAlign=middle;fontFamily=Helvetica;labelBorderColor=none;fontSize=13;labelBackgroundColor=#ffffff;" parent="274" connectable="0" vertex="1">
                    <mxGeometry relative="1" as="geometry">
                        <mxPoint x="31" as="offset"/>
                    </mxGeometry>
                </mxCell>
                <mxCell id="276" value="0..*" style="edgeLabel;resizable=0;html=1;align=left;verticalAlign=bottom;fontFamily=Helvetica;labelBackgroundColor=none;labelBorderColor=none;fontSize=13;" parent="274" connectable="0" vertex="1">
                    <mxGeometry x="-1" relative="1" as="geometry">
                        <mxPoint x="-30" y="-5" as="offset"/>
                    </mxGeometry>
                </mxCell>
                <mxCell id="277" value="1..1" style="edgeLabel;resizable=0;html=1;align=right;verticalAlign=bottom;fontFamily=Helvetica;labelBackgroundColor=none;labelBorderColor=none;fontSize=13;" parent="274" connectable="0" vertex="1">
                    <mxGeometry x="1" relative="1" as="geometry">
                        <mxPoint x="28" y="-3" as="offset"/>
                    </mxGeometry>
                </mxCell>
                <mxCell id="316" value="" style="endArrow=none;html=1;labelBackgroundColor=none;fontFamily=Helvetica;fontSize=13;startSize=30;rounded=1;exitX=0;exitY=0.037;exitDx=0;exitDy=0;exitPerimeter=0;" parent="1" source="125" edge="1">
                    <mxGeometry width="50" height="50" relative="1" as="geometry">
                        <mxPoint x="1241" y="50" as="sourcePoint"/>
                        <mxPoint x="1241" y="260" as="targetPoint"/>
                        <Array as="points">
                            <mxPoint x="1140" y="40"/>
                            <mxPoint x="1140" y="260"/>
                        </Array>
                    </mxGeometry>
                </mxCell>
                <mxCell id="317" value="0..*" style="edgeLabel;resizable=0;html=1;align=left;verticalAlign=bottom;fontFamily=Helvetica;labelBackgroundColor=none;labelBorderColor=none;fontSize=13;rotation=0;" parent="1" connectable="0" vertex="1">
                    <mxGeometry x="1209.9999999999995" y="280" as="geometry"/>
                </mxCell>
                <mxCell id="421" value="" style="endArrow=none;html=1;fontFamily=Helvetica;fontSize=13;labelBackgroundColor=none;labelBorderColor=none;endFill=0;entryX=0;entryY=0.5;entryDx=0;entryDy=0;exitX=1;exitY=0;exitDx=0;exitDy=0;" parent="1" target="504" edge="1" source="125">
                    <mxGeometry relative="1" as="geometry">
                        <mxPoint x="1441" y="40" as="sourcePoint"/>
                        <mxPoint x="1620" y="532" as="targetPoint"/>
                        <Array as="points">
                            <mxPoint x="1560" y="30"/>
                            <mxPoint x="1560" y="525"/>
                        </Array>
                    </mxGeometry>
                </mxCell>
                <mxCell id="422" value="User&lt;br style=&quot;font-size: 13px&quot;&gt;can like&lt;br&gt;Combinations" style="edgeLabel;resizable=0;html=1;align=center;verticalAlign=middle;fontFamily=Helvetica;labelBorderColor=none;fontSize=13;labelBackgroundColor=#ffffff;" parent="421" connectable="0" vertex="1">
                    <mxGeometry relative="1" as="geometry">
                        <mxPoint x="20" y="67" as="offset"/>
                    </mxGeometry>
                </mxCell>
                <mxCell id="423" value="0..*" style="edgeLabel;resizable=0;html=1;align=left;verticalAlign=bottom;fontFamily=Helvetica;labelBackgroundColor=none;labelBorderColor=none;fontSize=13;" parent="421" connectable="0" vertex="1">
                    <mxGeometry x="-1" relative="1" as="geometry">
                        <mxPoint x="3" as="offset"/>
                    </mxGeometry>
                </mxCell>
                <mxCell id="424" value="0..*" style="edgeLabel;resizable=0;html=1;align=right;verticalAlign=bottom;fontFamily=Helvetica;labelBackgroundColor=none;labelBorderColor=none;fontSize=13;" parent="421" connectable="0" vertex="1">
                    <mxGeometry x="1" relative="1" as="geometry">
                        <mxPoint x="-7" y="18" as="offset"/>
                    </mxGeometry>
                </mxCell>
                <mxCell id="426" value="CombinationLog" style="shape=table;startSize=30;container=1;collapsible=0;childLayout=tableLayout;fixedRows=1;rowLines=0;fontStyle=1;align=center;fontFamily=Helvetica;fontSize=13;labelBackgroundColor=none;labelBorderColor=none;" parent="1" vertex="1">
                    <mxGeometry x="1640" y="180" width="200" height="150" as="geometry"/>
                </mxCell>
                <mxCell id="427" value="" style="shape=partialRectangle;html=1;whiteSpace=wrap;collapsible=0;dropTarget=0;pointerEvents=0;fillColor=none;top=0;left=0;bottom=1;right=0;points=[[0,0.5],[1,0.5]];portConstraint=eastwest;fontFamily=Helvetica;labelBackgroundColor=none;labelBorderColor=none;fontSize=13;" parent="426" vertex="1">
                    <mxGeometry y="30" width="200" height="30" as="geometry"/>
                </mxCell>
                <mxCell id="428" value="ID" style="shape=partialRectangle;html=1;whiteSpace=wrap;connectable=0;fillColor=none;top=0;left=0;bottom=0;right=0;overflow=hidden;fontFamily=Helvetica;labelBackgroundColor=none;labelBorderColor=none;fontSize=13;" parent="427" vertex="1">
                    <mxGeometry width="80" height="30" as="geometry"/>
                </mxCell>
                <mxCell id="429" value="int - PK" style="shape=partialRectangle;html=1;whiteSpace=wrap;connectable=0;fillColor=none;top=0;left=0;bottom=0;right=0;align=left;spacingLeft=6;overflow=hidden;fontFamily=Helvetica;labelBackgroundColor=none;labelBorderColor=none;fontSize=13;" parent="427" vertex="1">
                    <mxGeometry x="80" width="120" height="30" as="geometry"/>
                </mxCell>
                <mxCell id="430" value="" style="shape=partialRectangle;html=1;whiteSpace=wrap;collapsible=0;dropTarget=0;pointerEvents=0;fillColor=none;top=0;left=0;bottom=0;right=0;points=[[0,0.5],[1,0.5]];portConstraint=eastwest;fontFamily=Helvetica;labelBackgroundColor=none;labelBorderColor=none;fontSize=13;" parent="426" vertex="1">
                    <mxGeometry y="60" width="200" height="30" as="geometry"/>
                </mxCell>
                <mxCell id="431" value="User" style="shape=partialRectangle;html=1;whiteSpace=wrap;connectable=0;fillColor=none;top=0;left=0;bottom=0;right=0;overflow=hidden;fontFamily=Helvetica;labelBackgroundColor=none;labelBorderColor=none;fontSize=13;" parent="430" vertex="1">
                    <mxGeometry width="80" height="30" as="geometry"/>
                </mxCell>
                <mxCell id="432" value="int - FK" style="shape=partialRectangle;html=1;whiteSpace=wrap;connectable=0;fillColor=none;top=0;left=0;bottom=0;right=0;align=left;spacingLeft=6;overflow=hidden;fontFamily=Helvetica;labelBackgroundColor=none;labelBorderColor=none;fontSize=13;" parent="430" vertex="1">
                    <mxGeometry x="80" width="120" height="30" as="geometry"/>
                </mxCell>
                <mxCell id="433" value="" style="shape=partialRectangle;html=1;whiteSpace=wrap;collapsible=0;dropTarget=0;pointerEvents=0;fillColor=none;top=0;left=0;bottom=0;right=0;points=[[0,0.5],[1,0.5]];portConstraint=eastwest;fontFamily=Helvetica;labelBackgroundColor=none;labelBorderColor=none;fontSize=13;" parent="426" vertex="1">
                    <mxGeometry y="90" width="200" height="30" as="geometry"/>
                </mxCell>
                <mxCell id="434" value="Combination" style="shape=partialRectangle;html=1;whiteSpace=wrap;connectable=0;fillColor=none;top=0;left=0;bottom=0;right=0;overflow=hidden;fontFamily=Helvetica;labelBackgroundColor=none;labelBorderColor=none;fontSize=13;" parent="433" vertex="1">
                    <mxGeometry width="80" height="30" as="geometry"/>
                </mxCell>
                <mxCell id="435" value="int - FK" style="shape=partialRectangle;html=1;whiteSpace=wrap;connectable=0;fillColor=none;top=0;left=0;bottom=0;right=0;align=left;spacingLeft=6;overflow=hidden;fontFamily=Helvetica;labelBackgroundColor=none;labelBorderColor=none;fontSize=13;" parent="433" vertex="1">
                    <mxGeometry x="80" width="120" height="30" as="geometry"/>
                </mxCell>
                <mxCell id="446" value="" style="shape=partialRectangle;html=1;whiteSpace=wrap;collapsible=0;dropTarget=0;pointerEvents=0;fillColor=none;top=0;left=0;bottom=0;right=0;points=[[0,0.5],[1,0.5]];portConstraint=eastwest;fontFamily=Helvetica;labelBackgroundColor=none;labelBorderColor=none;fontSize=13;" parent="426" vertex="1">
                    <mxGeometry y="120" width="200" height="30" as="geometry"/>
                </mxCell>
                <mxCell id="447" value="Timestamp" style="shape=partialRectangle;html=1;whiteSpace=wrap;connectable=0;fillColor=none;top=0;left=0;bottom=0;right=0;overflow=hidden;fontFamily=Helvetica;labelBackgroundColor=none;labelBorderColor=none;fontSize=13;" parent="446" vertex="1">
                    <mxGeometry width="80" height="30" as="geometry"/>
                </mxCell>
                <mxCell id="448" value="datetime" style="shape=partialRectangle;html=1;whiteSpace=wrap;connectable=0;fillColor=none;top=0;left=0;bottom=0;right=0;align=left;spacingLeft=6;overflow=hidden;fontFamily=Helvetica;labelBackgroundColor=none;labelBorderColor=none;fontSize=13;" parent="446" vertex="1">
                    <mxGeometry x="80" width="120" height="30" as="geometry"/>
                </mxCell>
                <mxCell id="436" value="CoverLog" style="shape=table;startSize=30;container=1;collapsible=0;childLayout=tableLayout;fixedRows=1;rowLines=0;fontStyle=1;align=center;fontFamily=Helvetica;fontSize=13;labelBackgroundColor=none;labelBorderColor=none;" parent="1" vertex="1">
                    <mxGeometry x="1240" y="760" width="200" height="150" as="geometry"/>
                </mxCell>
                <mxCell id="437" value="" style="shape=partialRectangle;html=1;whiteSpace=wrap;collapsible=0;dropTarget=0;pointerEvents=0;fillColor=none;top=0;left=0;bottom=1;right=0;points=[[0,0.5],[1,0.5]];portConstraint=eastwest;fontFamily=Helvetica;labelBackgroundColor=none;labelBorderColor=none;fontSize=13;" parent="436" vertex="1">
                    <mxGeometry y="30" width="200" height="30" as="geometry"/>
                </mxCell>
                <mxCell id="438" value="ID" style="shape=partialRectangle;html=1;whiteSpace=wrap;connectable=0;fillColor=none;top=0;left=0;bottom=0;right=0;overflow=hidden;fontFamily=Helvetica;labelBackgroundColor=none;labelBorderColor=none;fontSize=13;" parent="437" vertex="1">
                    <mxGeometry width="79" height="30" as="geometry"/>
                </mxCell>
                <mxCell id="439" value="int - PK" style="shape=partialRectangle;html=1;whiteSpace=wrap;connectable=0;fillColor=none;top=0;left=0;bottom=0;right=0;align=left;spacingLeft=6;overflow=hidden;fontFamily=Helvetica;labelBackgroundColor=none;labelBorderColor=none;fontSize=13;" parent="437" vertex="1">
                    <mxGeometry x="79" width="121" height="30" as="geometry"/>
                </mxCell>
                <mxCell id="440" value="" style="shape=partialRectangle;html=1;whiteSpace=wrap;collapsible=0;dropTarget=0;pointerEvents=0;fillColor=none;top=0;left=0;bottom=0;right=0;points=[[0,0.5],[1,0.5]];portConstraint=eastwest;fontFamily=Helvetica;labelBackgroundColor=none;labelBorderColor=none;fontSize=13;" parent="436" vertex="1">
                    <mxGeometry y="60" width="200" height="30" as="geometry"/>
                </mxCell>
                <mxCell id="441" value="User" style="shape=partialRectangle;html=1;whiteSpace=wrap;connectable=0;fillColor=none;top=0;left=0;bottom=0;right=0;overflow=hidden;fontFamily=Helvetica;labelBackgroundColor=none;labelBorderColor=none;fontSize=13;" parent="440" vertex="1">
                    <mxGeometry width="79" height="30" as="geometry"/>
                </mxCell>
                <mxCell id="442" value="int - FK" style="shape=partialRectangle;html=1;whiteSpace=wrap;connectable=0;fillColor=none;top=0;left=0;bottom=0;right=0;align=left;spacingLeft=6;overflow=hidden;fontFamily=Helvetica;labelBackgroundColor=none;labelBorderColor=none;fontSize=13;" parent="440" vertex="1">
                    <mxGeometry x="79" width="121" height="30" as="geometry"/>
                </mxCell>
                <mxCell id="443" value="" style="shape=partialRectangle;html=1;whiteSpace=wrap;collapsible=0;dropTarget=0;pointerEvents=0;fillColor=none;top=0;left=0;bottom=0;right=0;points=[[0,0.5],[1,0.5]];portConstraint=eastwest;fontFamily=Helvetica;labelBackgroundColor=none;labelBorderColor=none;fontSize=13;" parent="436" vertex="1">
                    <mxGeometry y="90" width="200" height="30" as="geometry"/>
                </mxCell>
                <mxCell id="444" value="Cover" style="shape=partialRectangle;html=1;whiteSpace=wrap;connectable=0;fillColor=none;top=0;left=0;bottom=0;right=0;overflow=hidden;fontFamily=Helvetica;labelBackgroundColor=none;labelBorderColor=none;fontSize=13;" parent="443" vertex="1">
                    <mxGeometry width="79" height="30" as="geometry"/>
                </mxCell>
                <mxCell id="445" value="int - FK" style="shape=partialRectangle;html=1;whiteSpace=wrap;connectable=0;fillColor=none;top=0;left=0;bottom=0;right=0;align=left;spacingLeft=6;overflow=hidden;fontFamily=Helvetica;labelBackgroundColor=none;labelBorderColor=none;fontSize=13;" parent="443" vertex="1">
                    <mxGeometry x="79" width="121" height="30" as="geometry"/>
                </mxCell>
                <mxCell id="452" value="" style="shape=partialRectangle;html=1;whiteSpace=wrap;collapsible=0;dropTarget=0;pointerEvents=0;fillColor=none;top=0;left=0;bottom=0;right=0;points=[[0,0.5],[1,0.5]];portConstraint=eastwest;fontFamily=Helvetica;labelBackgroundColor=none;labelBorderColor=none;fontSize=13;" parent="436" vertex="1">
                    <mxGeometry y="120" width="200" height="30" as="geometry"/>
                </mxCell>
                <mxCell id="453" value="Timestamp" style="shape=partialRectangle;html=1;whiteSpace=wrap;connectable=0;fillColor=none;top=0;left=0;bottom=0;right=0;overflow=hidden;fontFamily=Helvetica;labelBackgroundColor=none;labelBorderColor=none;fontSize=13;" parent="452" vertex="1">
                    <mxGeometry width="79" height="30" as="geometry"/>
                </mxCell>
                <mxCell id="454" value="datetime" style="shape=partialRectangle;html=1;whiteSpace=wrap;connectable=0;fillColor=none;top=0;left=0;bottom=0;right=0;align=left;spacingLeft=6;overflow=hidden;fontFamily=Helvetica;labelBackgroundColor=none;labelBorderColor=none;fontSize=13;" parent="452" vertex="1">
                    <mxGeometry x="79" width="121" height="30" as="geometry"/>
                </mxCell>
                <mxCell id="464" style="edgeStyle=orthogonalEdgeStyle;curved=0;rounded=1;sketch=0;orthogonalLoop=1;jettySize=auto;html=1;exitX=0.5;exitY=1;exitDx=0;exitDy=0;" parent="1" edge="1">
                    <mxGeometry relative="1" as="geometry">
                        <mxPoint x="1175" y="180" as="sourcePoint"/>
                        <mxPoint x="1175" y="180" as="targetPoint"/>
                    </mxGeometry>
                </mxCell>
                <mxCell id="461" value="User&lt;br style=&quot;font-size: 13px&quot;&gt;can have&lt;br&gt;Followings" style="edgeLabel;resizable=0;html=1;align=center;verticalAlign=middle;fontFamily=Helvetica;labelBorderColor=none;fontSize=13;labelBackgroundColor=#ffffff;" parent="1" connectable="0" vertex="1">
                    <mxGeometry x="1130.0028117751153" y="150.00198924099203" as="geometry"/>
                </mxCell>
                <mxCell id="478" value="" style="endArrow=none;html=1;fontFamily=Helvetica;fontSize=13;entryX=0;entryY=0.5;entryDx=0;entryDy=0;labelBackgroundColor=none;labelBorderColor=none;endFill=0;exitX=-0.005;exitY=0.078;exitDx=0;exitDy=0;exitPerimeter=0;" parent="1" source="125" target="192" edge="1">
                    <mxGeometry relative="1" as="geometry">
                        <mxPoint x="1180.2079999999999" y="350" as="sourcePoint"/>
                        <mxPoint x="1183.79" y="430" as="targetPoint"/>
                        <Array as="points">
                            <mxPoint x="1180" y="51"/>
                            <mxPoint x="1180" y="575"/>
                        </Array>
                    </mxGeometry>
                </mxCell>
                <mxCell id="479" value="0..*" style="edgeLabel;resizable=0;html=1;align=left;verticalAlign=bottom;fontFamily=Helvetica;labelBackgroundColor=none;labelBorderColor=none;fontSize=13;" parent="478" connectable="0" vertex="1">
                    <mxGeometry x="-1" relative="1" as="geometry">
                        <mxPoint x="-31" y="20" as="offset"/>
                    </mxGeometry>
                </mxCell>
                <mxCell id="480" value="1..1" style="edgeLabel;resizable=0;html=1;align=right;verticalAlign=bottom;fontFamily=Helvetica;labelBackgroundColor=none;labelBorderColor=none;fontSize=13;" parent="478" connectable="0" vertex="1">
                    <mxGeometry x="1" relative="1" as="geometry">
                        <mxPoint x="-4" as="offset"/>
                    </mxGeometry>
                </mxCell>
                <mxCell id="481" value="User&lt;br style=&quot;font-size: 13px&quot;&gt;makes&lt;br&gt;Covers" style="edgeLabel;resizable=0;html=1;align=center;verticalAlign=middle;fontFamily=Helvetica;labelBorderColor=none;fontSize=13;labelBackgroundColor=#ffffff;" parent="1" connectable="0" vertex="1">
                    <mxGeometry x="1179.9972073959507" y="379.99996417533777" as="geometry"/>
                </mxCell>
                <mxCell id="488" value="" style="endArrow=none;html=1;fontFamily=Helvetica;fontSize=13;labelBackgroundColor=none;labelBorderColor=none;endFill=0;entryX=1.005;entryY=0.076;entryDx=0;entryDy=0;entryPerimeter=0;" parent="1" edge="1">
                    <mxGeometry relative="1" as="geometry">
                        <mxPoint x="1841" y="290" as="sourcePoint"/>
                        <mxPoint x="1841" y="380.96000000000004" as="targetPoint"/>
                        <Array as="points">
                            <mxPoint x="1870" y="290"/>
                            <mxPoint x="1870" y="381"/>
                        </Array>
                    </mxGeometry>
                </mxCell>
                <mxCell id="489" value="Combination&lt;br style=&quot;font-size: 13px&quot;&gt;can have&lt;br&gt;CombinationLogs" style="edgeLabel;resizable=0;html=1;align=center;verticalAlign=middle;fontFamily=Helvetica;labelBorderColor=none;fontSize=13;labelBackgroundColor=#ffffff;" parent="488" connectable="0" vertex="1">
                    <mxGeometry relative="1" as="geometry">
                        <mxPoint x="30" as="offset"/>
                    </mxGeometry>
                </mxCell>
                <mxCell id="490" value="1..1" style="edgeLabel;resizable=0;html=1;align=left;verticalAlign=bottom;fontFamily=Helvetica;labelBackgroundColor=none;labelBorderColor=none;fontSize=13;" parent="488" connectable="0" vertex="1">
                    <mxGeometry x="-1" relative="1" as="geometry">
                        <mxPoint x="10" y="-5" as="offset"/>
                    </mxGeometry>
                </mxCell>
                <mxCell id="491" value="0..*" style="edgeLabel;resizable=0;html=1;align=right;verticalAlign=bottom;fontFamily=Helvetica;labelBackgroundColor=none;labelBorderColor=none;fontSize=13;" parent="488" connectable="0" vertex="1">
                    <mxGeometry x="1" relative="1" as="geometry">
                        <mxPoint x="29" y="24" as="offset"/>
                    </mxGeometry>
                </mxCell>
                <mxCell id="492" value="" style="endArrow=none;html=1;fontFamily=Helvetica;fontSize=13;entryX=1;entryY=0.5;entryDx=0;entryDy=0;labelBackgroundColor=none;labelBorderColor=none;endFill=0;exitX=1;exitY=-0.167;exitDx=0;exitDy=0;exitPerimeter=0;" parent="1" source="126" target="440" edge="1">
                    <mxGeometry relative="1" as="geometry">
                        <mxPoint x="1450" y="240" as="sourcePoint"/>
                        <mxPoint x="1531" y="764" as="targetPoint"/>
                        <Array as="points">
                            <mxPoint x="1480" y="55"/>
                            <mxPoint x="1480" y="835"/>
                        </Array>
                    </mxGeometry>
                </mxCell>
                <mxCell id="493" value="0..*" style="edgeLabel;resizable=0;html=1;align=left;verticalAlign=bottom;fontFamily=Helvetica;labelBackgroundColor=none;labelBorderColor=none;fontSize=13;" parent="492" connectable="0" vertex="1">
                    <mxGeometry x="-1" relative="1" as="geometry">
                        <mxPoint x="50" y="15" as="offset"/>
                    </mxGeometry>
                </mxCell>
                <mxCell id="494" value="1..1" style="edgeLabel;resizable=0;html=1;align=right;verticalAlign=bottom;fontFamily=Helvetica;labelBackgroundColor=none;labelBorderColor=none;fontSize=13;" parent="492" connectable="0" vertex="1">
                    <mxGeometry x="1" relative="1" as="geometry">
                        <mxPoint x="28" y="-3" as="offset"/>
                    </mxGeometry>
                </mxCell>
                <mxCell id="495" value="User&lt;br style=&quot;font-size: 13px&quot;&gt;makes&lt;br&gt;CoverLogs" style="edgeLabel;resizable=0;html=1;align=center;verticalAlign=middle;fontFamily=Helvetica;labelBorderColor=none;fontSize=13;labelBackgroundColor=#ffffff;" parent="1" connectable="0" vertex="1">
                    <mxGeometry x="1479.9972073959507" y="299.9999641753377" as="geometry"/>
                </mxCell>
                <mxCell id="496" value="" style="endArrow=none;html=1;fontFamily=Helvetica;fontSize=13;labelBackgroundColor=none;labelBorderColor=none;endFill=0;entryX=0;entryY=0.5;entryDx=0;entryDy=0;" parent="1" edge="1" target="430">
                    <mxGeometry relative="1" as="geometry">
                        <mxPoint x="1440" y="37" as="sourcePoint"/>
                        <mxPoint x="1620" y="250" as="targetPoint"/>
                        <Array as="points">
                            <mxPoint x="1590" y="37"/>
                            <mxPoint x="1590" y="255"/>
                        </Array>
                    </mxGeometry>
                </mxCell>
                <mxCell id="497" value="User&lt;br style=&quot;font-size: 13px&quot;&gt;makes&lt;br&gt;CombinationLogs" style="edgeLabel;resizable=0;html=1;align=center;verticalAlign=middle;fontFamily=Helvetica;labelBorderColor=none;fontSize=13;labelBackgroundColor=#ffffff;" parent="496" connectable="0" vertex="1">
                    <mxGeometry relative="1" as="geometry">
                        <mxPoint x="30" y="15" as="offset"/>
                    </mxGeometry>
                </mxCell>
                <mxCell id="498" value="0..*" style="edgeLabel;resizable=0;html=1;align=left;verticalAlign=bottom;fontFamily=Helvetica;labelBackgroundColor=none;labelBorderColor=none;fontSize=13;" parent="496" connectable="0" vertex="1">
                    <mxGeometry x="-1" relative="1" as="geometry">
                        <mxPoint x="150" y="3" as="offset"/>
                    </mxGeometry>
                </mxCell>
                <mxCell id="499" value="1..1" style="edgeLabel;resizable=0;html=1;align=right;verticalAlign=bottom;fontFamily=Helvetica;labelBackgroundColor=none;labelBorderColor=none;fontSize=13;" parent="496" connectable="0" vertex="1">
                    <mxGeometry x="1" relative="1" as="geometry">
                        <mxPoint x="-10" y="25" as="offset"/>
                    </mxGeometry>
                </mxCell>
                <mxCell id="500" value="" style="endArrow=none;html=1;fontFamily=Helvetica;fontSize=13;entryX=0;entryY=0.5;entryDx=0;entryDy=0;labelBackgroundColor=none;labelBorderColor=none;endFill=0;exitX=-0.005;exitY=0.078;exitDx=0;exitDy=0;exitPerimeter=0;" parent="1" target="443" edge="1">
                    <mxGeometry relative="1" as="geometry">
                        <mxPoint x="1240.005" y="396.05999999999995" as="sourcePoint"/>
                        <mxPoint x="1241" y="920" as="targetPoint"/>
                        <Array as="points">
                            <mxPoint x="1210" y="396"/>
                            <mxPoint x="1210" y="865"/>
                        </Array>
                    </mxGeometry>
                </mxCell>
                <mxCell id="501" value="0..*" style="edgeLabel;resizable=0;html=1;align=left;verticalAlign=bottom;fontFamily=Helvetica;labelBackgroundColor=none;labelBorderColor=none;fontSize=13;" parent="500" connectable="0" vertex="1">
                    <mxGeometry x="-1" relative="1" as="geometry">
                        <mxPoint x="-31" y="-6" as="offset"/>
                    </mxGeometry>
                </mxCell>
                <mxCell id="502" value="1..1" style="edgeLabel;resizable=0;html=1;align=right;verticalAlign=bottom;fontFamily=Helvetica;labelBackgroundColor=none;labelBorderColor=none;fontSize=13;" parent="500" connectable="0" vertex="1">
                    <mxGeometry x="1" relative="1" as="geometry">
                        <mxPoint x="-8" y="25" as="offset"/>
                    </mxGeometry>
                </mxCell>
                <mxCell id="503" value="Cover&lt;br&gt;can have&lt;br&gt;CoverLogs" style="edgeLabel;resizable=0;html=1;align=center;verticalAlign=middle;fontFamily=Helvetica;labelBorderColor=none;fontSize=13;labelBackgroundColor=#ffffff;" parent="1" connectable="0" vertex="1">
                    <mxGeometry x="1199.9972073959507" y="759.9999641753377" as="geometry"/>
                </mxCell>
                <mxCell id="507" value="" style="endArrow=none;html=1;fontFamily=Helvetica;fontSize=13;entryX=1;entryY=0.5;entryDx=0;entryDy=0;labelBackgroundColor=none;labelBorderColor=none;endFill=0;exitX=1;exitY=-0.167;exitDx=0;exitDy=0;exitPerimeter=0;" edge="1" parent="1" target="511">
                    <mxGeometry relative="1" as="geometry">
                        <mxPoint x="1440" y="46.000000000000014" as="sourcePoint"/>
                        <mxPoint x="1440" y="786.01" as="targetPoint"/>
                        <Array as="points">
                            <mxPoint x="1520" y="46"/>
                            <mxPoint x="1520" y="695"/>
                        </Array>
                    </mxGeometry>
                </mxCell>
                <mxCell id="508" value="0..*" style="edgeLabel;resizable=0;html=1;align=left;verticalAlign=bottom;fontFamily=Helvetica;labelBackgroundColor=none;labelBorderColor=none;fontSize=13;" connectable="0" vertex="1" parent="507">
                    <mxGeometry x="-1" relative="1" as="geometry">
                        <mxPoint x="10" y="34" as="offset"/>
                    </mxGeometry>
                </mxCell>
                <mxCell id="509" value="1..1" style="edgeLabel;resizable=0;html=1;align=right;verticalAlign=bottom;fontFamily=Helvetica;labelBackgroundColor=none;labelBorderColor=none;fontSize=13;" connectable="0" vertex="1" parent="507">
                    <mxGeometry x="1" relative="1" as="geometry">
                        <mxPoint x="28" y="-3" as="offset"/>
                    </mxGeometry>
                </mxCell>
                <mxCell id="510" value="User&lt;br style=&quot;font-size: 13px&quot;&gt;can like&lt;br&gt;Covers" style="edgeLabel;resizable=0;html=1;align=center;verticalAlign=middle;fontFamily=Helvetica;labelBorderColor=none;fontSize=13;labelBackgroundColor=#ffffff;" connectable="0" vertex="1" parent="1">
                    <mxGeometry x="1519.9972073959507" y="219.9999641753377" as="geometry"/>
                </mxCell>
            </root>
        </mxGraphModel>
    </diagram>
</mxfile>